<svg width="13" height="12" viewBox="0 0 13 12" fill="none" xmlns="http://www.w3.org/2000/svg">
    <path d="M0 10.2993V9.75833C0.0610735 9.48688 0.162175 9.22603 0.299995 8.98433C0.730995 8.20133 1.155 7.41432 1.582 6.63032L4.655 0.981321C4.81638 0.68069 5.05727 0.430179 5.35136 0.257154C5.64544 0.08413 5.98142 -0.00475723 6.32259 0.000196288C6.66377 0.00514981 6.99702 0.103756 7.28596 0.285246C7.5749 0.466735 7.80841 0.724136 7.961 1.02933C8.913 2.78333 9.86666 4.53665 10.822 6.28932C11.356 7.27232 11.9 8.25132 12.422 9.24232C12.6103 9.63268 12.6556 10.0768 12.55 10.4971C12.4444 10.9175 12.1945 11.2874 11.844 11.5423C11.4766 11.7949 11.0375 11.9222 10.592 11.9053H2.41299C2.18399 11.9053 1.955 11.9053 1.725 11.8913C1.31227 11.868 0.919927 11.7042 0.612999 11.4273C0.287516 11.131 0.0715327 10.7336 0 10.2993ZM7.02399 5.61333V3.92833C7.02457 3.83392 7.01756 3.73961 7.003 3.64633C6.98005 3.50164 6.91346 3.36741 6.81213 3.26161C6.71079 3.15581 6.57956 3.08348 6.436 3.05432C6.28792 3.02645 6.13484 3.04502 5.99772 3.1075C5.8606 3.16997 5.74614 3.27329 5.67 3.40332C5.59561 3.55015 5.56112 3.71396 5.57 3.87832V7.28433C5.56908 7.37436 5.57544 7.46432 5.589 7.55333C5.60864 7.68746 5.66585 7.8133 5.75402 7.91627C5.84219 8.01925 5.95771 8.09515 6.08722 8.13522C6.21673 8.17529 6.35493 8.17788 6.48585 8.14268C6.61676 8.10748 6.73504 8.03593 6.827 7.93632C6.89741 7.85833 6.95141 7.76696 6.98577 7.66766C7.02013 7.56836 7.03415 7.46315 7.027 7.35832C7.027 6.77632 7.027 6.19332 7.027 5.61232L7.02399 5.61333ZM6.306 8.95033C6.2116 8.94834 6.11774 8.96506 6.02985 8.99954C5.94195 9.03402 5.86175 9.08557 5.79388 9.15121C5.72601 9.21685 5.67181 9.29527 5.63441 9.38197C5.59702 9.46867 5.57716 9.56191 5.576 9.65632C5.57206 9.75331 5.58773 9.85009 5.62206 9.94089C5.65638 10.0317 5.70866 10.1146 5.77577 10.1848C5.84288 10.2549 5.92344 10.3108 6.01264 10.349C6.10184 10.3873 6.19783 10.4072 6.2949 10.4076C6.39196 10.4079 6.48811 10.3887 6.57757 10.351C6.66703 10.3133 6.74797 10.258 6.81557 10.1884C6.88316 10.1187 6.93602 10.0361 6.97097 9.94555C7.00592 9.855 7.02226 9.75834 7.019 9.66133C7.01716 9.47326 6.94129 9.29348 6.80783 9.16096C6.67437 9.02844 6.49408 8.95384 6.306 8.95332V8.95033Z" fill="white"/>
</svg>
